HIERARCHY
ROOT Root
{
  OFFSET 0.0 0.0 0.0
  CHANNELS 6 Xposition Yposition Zposition Zrotation Yrotation Xrotation
  JOINT Hips
  {
    OFFSET 0.0 100.0 0.0
    CHANNELS 6 Xposition Yposition Zposition Zrotation Yrotation Xrotation
    JOINT Spine1
    {
      OFFSET 5.003913 -0.037094 -0.013727
      CHANNELS 3 Zrotation Yrotation Xrotation
      JOINT Spine2
      {
        OFFSET 7.125363 -1e-06 0.0
        CHANNELS 3 Zrotation Yrotation Xrotation
        JOINT Chest
        {
          OFFSET 7.594027 1e-06 0.0
          CHANNELS 3 Zrotation Yrotation Xrotation
          JOINT Neck1
          {
            OFFSET 26.313086 -0.460272 -0.181672
            CHANNELS 3 Zrotation Yrotation Xrotation
            JOINT Neck2
            {
              OFFSET 8.045911 0.0 0.0
              CHANNELS 3 Zrotation Yrotation Xrotation
              JOINT Head
              {
                OFFSET 6.432774 0.0 0.0
                CHANNELS 3 Zrotation Yrotation Xrotation
                JOINT HeadEnd
                {
                  OFFSET 16.169773 0.06451 0.00362
                  CHANNELS 3 Zrotation Yrotation Xrotation
                }
                JOINT Jaw
                {
                  OFFSET 0.108741 3.12938 0.002639
                  CHANNELS 3 Zrotation Yrotation Xrotation
                }
                JOINT LeftEye
                {
                  OFFSET 4.45173 8.166359 3.206392
                  CHANNELS 3 Zrotation Yrotation Xrotation
                }
                JOINT RightEye
                {
                  OFFSET 4.436895 8.135758 -3.222429
                  CHANNELS 3 Zrotation Yrotation Xrotation
                }
              }
            }
          }
          JOINT LeftShoulder
          {
            OFFSET 23.218927 5.195579 1.621656
            CHANNELS 3 Zrotation Yrotation Xrotation
            JOINT LeftArm
            {
              OFFSET 15.902118 2e-06 -2e-06
              CHANNELS 3 Zrotation Yrotation Xrotation
              JOINT LeftForeArm
              {
                OFFSET 28.739307 0.0 -1e-06
                CHANNELS 3 Zrotation Yrotation Xrotation
                JOINT LeftHand
                {
                  OFFSET 27.093981 -4e-06 0.0
                  CHANNELS 3 Zrotation Yrotation Xrotation
                  JOINT LeftHandThumb1
                  {
                    OFFSET 2.276781 3.380274 0.83384
                    CHANNELS 3 Zrotation Yrotation Xrotation
                    JOINT LeftHandThumb2
                    {
                      OFFSET 4.705309 -1e-06 -1e-06
                      CHANNELS 3 Zrotation Yrotation Xrotation
                      JOINT LeftHandThumb3
                      {
                        OFFSET 2.798515 0.0 3e-06
                        CHANNELS 3 Zrotation Yrotation Xrotation
                        JOINT LeftHandThumbEnd
                        {
                          OFFSET 3.180793 4e-06 -4e-06
                          CHANNELS 3 Zrotation Yrotation Xrotation
                        }
                      }
                    }
                  }
                  JOINT LeftHandIndex1
                  {
                    OFFSET 3.247786 2.352677 0.137192
                    CHANNELS 3 Zrotation Yrotation Xrotation
                    JOINT LeftHandIndex2
                    {
                      OFFSET 6.367095 1e-06 0.0
                      CHANNELS 3 Zrotation Yrotation Xrotation
                      JOINT LeftHandIndex3
                      {
                        OFFSET 3.662364 0.0 0.0
                        CHANNELS 3 Zrotation Yrotation Xrotation
                        JOINT LeftHandIndex4
                        {
                          OFFSET 2.329242 4e-06 -4e-06
                          CHANNELS 3 Zrotation Yrotation Xrotation
                          JOINT LeftHandIndexEnd
                          {
                            OFFSET 2.767823 1e-06 0.0
                            CHANNELS 3 Zrotation Yrotation Xrotation
                          }
                        }
                      }
                    }
                  }
                  JOINT LeftHandMiddle1
                  {
                    OFFSET 3.163612 0.945023 -0.406112
                    CHANNELS 3 Zrotation Yrotation Xrotation
                    JOINT LeftHandMiddle2
                    {
                      OFFSET 6.276789 3e-06 0.0
                      CHANNELS 3 Zrotation Yrotation Xrotation
                      JOINT LeftHandMiddle3
                      {
                        OFFSET 4.35652 -1e-06 4e-06
                        CHANNELS 3 Zrotation Yrotation Xrotation
                        JOINT LeftHandMiddle4
                        {
                          OFFSET 2.996877 0.0 8e-06
                          CHANNELS 3 Zrotation Yrotation Xrotation
                          JOINT LeftHandMiddleEnd
                          {
                            OFFSET 2.323256 3e-06 -4e-06
                            CHANNELS 3 Zrotation Yrotation Xrotation
                          }
                        }
                      }
                    }
                  }
                  JOINT LeftHandRing1
                  {
                    OFFSET 2.882606 -0.309162 0.107445
                    CHANNELS 3 Zrotation Yrotation Xrotation
                    JOINT LeftHandRing2
                    {
                      OFFSET 6.033198 0.0 4e-06
                      CHANNELS 3 Zrotation Yrotation Xrotation
                      JOINT LeftHandRing3
                      {
                        OFFSET 4.350578 3e-06 0.0
                        CHANNELS 3 Zrotation Yrotation Xrotation
                        JOINT LeftHandRing4
                        {
                          OFFSET 2.651321 2e-06 -7e-06
                          CHANNELS 3 Zrotation Yrotation Xrotation
                          JOINT LeftHandRingEnd
                          {
                            OFFSET 1.937663 1e-06 -4e-06
                            CHANNELS 3 Zrotation Yrotation Xrotation
                          }
                        }
                      }
                    }
                  }
                  JOINT LeftHandPinky1
                  {
                    OFFSET 2.865315 -1.525436 0.575687
                    CHANNELS 3 Zrotation Yrotation Xrotation
                    JOINT LeftHandPinky2
                    {
                      OFFSET 5.54936 1e-06 -8e-06
                      CHANNELS 3 Zrotation Yrotation Xrotation
                      JOINT LeftHandPinky3
                      {
                        OFFSET 3.070974 0.0 -4e-06
                        CHANNELS 3 Zrotation Yrotation Xrotation
                        JOINT LeftHandPinky4
                        {
                          OFFSET 1.549672 1e-06 0.0
                          CHANNELS 3 Zrotation Yrotation Xrotation
                          JOINT LeftHandPinkyEnd
                          {
                            OFFSET 1.952123 0.0 0.0
                            CHANNELS 3 Zrotation Yrotation Xrotation
                          }
                        }
                      }
                    }
                  }
                }
              }
            }
          }
          JOINT RightShoulder
          {
            OFFSET 23.161716 5.296122 -1.380114
            CHANNELS 3 Zrotation Yrotation Xrotation
            JOINT RightArm
            {
              OFFSET -16.027195 -2e-06 1.1e-05
              CHANNELS 3 Zrotation Yrotation Xrotation
              JOINT RightForeArm
              {
                OFFSET -28.736639 4e-06 2e-06
                CHANNELS 3 Zrotation Yrotation Xrotation
                JOINT RightHand
                {
                  OFFSET -27.133619 6e-06 0.0
                  CHANNELS 3 Zrotation Yrotation Xrotation
                  JOINT RightHandThumb1
                  {
                    OFFSET -2.274328 -3.351035 -0.83067
                    CHANNELS 3 Zrotation Yrotation Xrotation
                    JOINT RightHandThumb2
                    {
                      OFFSET -4.703594 -3e-06 2e-06
                      CHANNELS 3 Zrotation Yrotation Xrotation
                      JOINT RightHandThumb3
                      {
                        OFFSET -2.794935 -4e-06 -3e-06
                        CHANNELS 3 Zrotation Yrotation Xrotation
                        JOINT RightHandThumbEnd
                        {
                          OFFSET -3.183852 4e-06 1e-06
                          CHANNELS 3 Zrotation Yrotation Xrotation
                        }
                      }
                    }
                  }
                  JOINT RightHandIndex1
                  {
                    OFFSET -3.253496 -2.33755 -0.127667
                    CHANNELS 3 Zrotation Yrotation Xrotation
                    JOINT RightHandIndex2
                    {
                      OFFSET -6.344434 0.0 0.0
                      CHANNELS 3 Zrotation Yrotation Xrotation
                      JOINT RightHandIndex3
                      {
                        OFFSET -3.654871 0.0 -8e-06
                        CHANNELS 3 Zrotation Yrotation Xrotation
                        JOINT RightHandIndex4
                        {
                          OFFSET -2.327586 -1e-06 0.0
                          CHANNELS 3 Zrotation Yrotation Xrotation
                          JOINT RightHandIndexEnd
                          {
                            OFFSET -2.770001 3e-06 8e-06
                            CHANNELS 3 Zrotation Yrotation Xrotation
                          }
                        }
                      }
                    }
                  }
                  JOINT RightHandMiddle1
                  {
                    OFFSET -3.168223 -0.944764 0.411762
                    CHANNELS 3 Zrotation Yrotation Xrotation
                    JOINT RightHandMiddle2
                    {
                      OFFSET -6.266691 -1e-06 -4e-06
                      CHANNELS 3 Zrotation Yrotation Xrotation
                      JOINT RightHandMiddle3
                      {
                        OFFSET -4.348901 0.0 0.0
                        CHANNELS 3 Zrotation Yrotation Xrotation
                        JOINT RightHandMiddle4
                        {
                          OFFSET -3.00024 2e-06 -4e-06
                          CHANNELS 3 Zrotation Yrotation Xrotation
                          JOINT RightHandMiddleEnd
                          {
                            OFFSET -2.321477 -4e-06 -4e-06
                            CHANNELS 3 Zrotation Yrotation Xrotation
                          }
                        }
                      }
                    }
                  }
                  JOINT RightHandRing1
                  {
                    OFFSET -2.885654 0.293261 -0.119232
                    CHANNELS 3 Zrotation Yrotation Xrotation
                    JOINT RightHandRing2
                    {
                      OFFSET -6.032835 -1e-06 -4e-06
                      CHANNELS 3 Zrotation Yrotation Xrotation
                      JOINT RightHandRing3
                      {
                        OFFSET -4.33881 0.0 -4e-06
                        CHANNELS 3 Zrotation Yrotation Xrotation
                        JOINT RightHandRing4
                        {
                          OFFSET -2.654903 -4e-06 -4e-06
                          CHANNELS 3 Zrotation Yrotation Xrotation
                          JOINT RightHandRingEnd
                          {
                            OFFSET -1.935122 0.0 4e-06
                            CHANNELS 3 Zrotation Yrotation Xrotation
                          }
                        }
                      }
                    }
                  }
                  JOINT RightHandPinky1
                  {
                    OFFSET -2.866241 1.503904 -0.60527
                    CHANNELS 3 Zrotation Yrotation Xrotation
                    JOINT RightHandPinky2
                    {
                      OFFSET -5.553177 -2e-06 0.0
                      CHANNELS 3 Zrotation Yrotation Xrotation
                      JOINT RightHandPinky3
                      {
                        OFFSET -3.062664 -1e-06 -4e-06
                        CHANNELS 3 Zrotation Yrotation Xrotation
                        JOINT RightHandPinky4
                        {
                          OFFSET -1.546529 2e-06 4e-06
                          CHANNELS 3 Zrotation Yrotation Xrotation
                          JOINT RightHandPinkyEnd
                          {
                            OFFSET -1.952341 0.0 -4e-06
                            CHANNELS 3 Zrotation Yrotation Xrotation
                          }
                        }
                      }
                    }
                  }
                }
              }
            }
          }
        }
      }
    }
    JOINT LeftLeg
    {
      OFFSET -8.443107 2.567604 10.043214
      CHANNELS 3 Zrotation Yrotation Xrotation
      JOINT LeftShin
      {
        OFFSET 43.229198 1e-06 -1e-06
        CHANNELS 3 Zrotation Yrotation Xrotation
        JOINT LeftFoot
        {
          OFFSET 42.298611 1e-06 1e-06
          CHANNELS 3 Zrotation Yrotation Xrotation
          JOINT LeftToeBase
          {
            OFFSET 14.165858 1e-06 0.0
            CHANNELS 3 Zrotation Yrotation Xrotation
            JOINT LeftToeEnd
            {
              OFFSET 6.7141 -0.234461 0.0
              CHANNELS 3 Zrotation Yrotation Xrotation
            }
          }
        }
      }
    }
    JOINT RightLeg
    {
      OFFSET -8.303923 2.592729 -10.047278
      CHANNELS 3 Zrotation Yrotation Xrotation
      JOINT RightShin
      {
        OFFSET -43.369682 0.0 1e-06
        CHANNELS 3 Zrotation Yrotation Xrotation
        JOINT RightFoot
        {
          OFFSET -42.260784 4e-06 2e-06
          CHANNELS 3 Zrotation Yrotation Xrotation
          JOINT RightToeBase
          {
            OFFSET -14.222245 -2e-06 -1e-06
            CHANNELS 3 Zrotation Yrotation Xrotation
            JOINT RightToeEnd
            {
              OFFSET -6.660062 0.232574 -2e-06
              CHANNELS 3 Zrotation Yrotation Xrotation
            }
          }
        }
      }
    }
  }
}
MOTION
Frames: 4
Frame Time: 0.03333333333333333
0.0 0.0 0.0 0.0 -0.0 0.0 -11.866049 49.140911 127.54184 91.090378 -48.31543 87.705521 15.014297 -2.289286 0.92429 -4.284856 -0.634791 2.45108 25.876947 -5.092681 0.0606 29.748386 -4.627017 1.949903 -2.653713 -0.328803 -1.806304 -21.574835 -5.459673 -2.759811 6e-06 3e-06 -0.0 -0.226456 -0.026881 0.002303 -0.058971 0.007474 0.039207 -0.064688 -0.061365 -0.030602 -23.534594 -76.736252 31.429533 86.813835 -6.211162 -28.211357 12.131508 -1.36667 -0.085853 81.695045 68.449219 84.681366 17.636633 -26.322733 52.411201 -19.466661 -14.395596 29.410389 -1e-06 -8.774821 -2e-06 15.537396 -18.342016 6.398526 -0.609776 -1.795654 -3.889328 -4.80709 -11.04681 -2.937851 4e-06 -20.976019 -1e-06 -5.019969 -25.03356 -4.03188 6e-06 0.0 1e-06 -10.634535 -5.686973 -3.565589 10.573275 -17.922951 -3.113899 3e-06 -13.821211 0.0 -0.501776 -31.181505 -4.027017 -11.301486 -59.629341 7.824864 -13.982716 -7.150199 -2.875043 13.772731 -8.401493 -3.218241 0.347733 -34.211555 0.771655 -0.963028 -17.73337 2.62102 -0.0 -0.0 0.0 -17.346422 -20.095221 -4.201783 21.757559 -1.638376 3.86643 1e-06 -6.338824 1e-06 -1.697588 -22.591747 -6.194009 -1e-06 -6e-06 -2e-06 -176.247818 -60.358791 0.743295 71.731026 -0.855436 -50.744694 13.747352 -0.821127 -0.168354 40.563744 56.090275 43.226639 22.182119 -20.375898 49.933331 -16.701811 -16.743528 28.476534 -2e-06 -12.690601 -1e-06 15.990844 -17.264927 2.621294 -0.105919 -1.513858 -4.275882 -5.039042 -5.612872 -2.953557 4e-06 -11.020528 -2e-06 -6.1113 -15.895334 -3.840471 -0.0 -0.0 -0.0 -10.283372 -5.680289 -4.34184 11.028296 -11.302407 -2.372633 -1.384269 -14.238583 -6.320123 -0.62544 -26.924192 -3.827602 -3.837551 -50.24091 -4.085194 -13.708526 -7.363478 -3.720941 18.141148 -14.05274 -3.242675 6e-06 -18.787273 -2e-06 -0.429712 -8.456047 2.555503 -0.0 -0.0 0.0 -15.923539 -20.094492 -5.473586 30.419222 -7.190827 1.735927 2e-06 -8.162925 0.0 -1.861905 -22.861475 -6.167945 1e-06 -4e-06 -1e-06 102.235619 -6.053765 10.797054 130.928833 0.848623 0.51586 -50.387505 15.303446 4.314412 -11.805108 1.493333 2.012103 -0.999999 0.0 0.0 -33.608463 3.455929 6.260773 88.796295 0.367088 -0.42303 -48.563984 18.597216 1.087276 -13.23991 0.539194 1.30886 -1.0 -0.0 -0.0 
0.0 0.0 0.0 0.0 -0.0 0.0 -11.536631 48.692295 129.577759 91.201172 -48.135586 85.865044 14.806806 -2.452504 1.000822 -4.431337 -0.603586 2.722746 25.759375 -5.288081 0.49124 30.048138 -5.331223 1.72137 -2.63801 -0.256434 -1.508291 -22.074677 -5.596941 -2.204407 6e-06 2e-06 -0.0 -0.227577 -0.069082 0.004377 -0.060565 -0.060365 0.056924 -0.046405 -0.080709 -0.04511 -26.654024 -77.367676 34.895641 86.368416 -8.14018 -27.703098 12.576197 -1.412377 -0.122676 84.046799 68.614143 87.788567 17.636618 -26.32272 52.411179 -19.466656 -14.395596 29.410381 -1e-06 -8.774819 -2e-06 15.583393 -18.248653 6.390585 -0.609776 -1.795654 -3.889327 -4.807087 -11.046807 -2.937849 4e-06 -20.976011 -1e-06 -5.019969 -25.033548 -4.031878 6e-06 1e-06 -0.0 -10.634531 -5.686968 -3.565587 10.573271 -17.922947 -3.1139 3e-06 -13.821203 1e-06 -0.501777 -31.181494 -4.027015 -11.219146 -59.683445 7.623197 -13.982711 -7.150195 -2.875041 13.772727 -8.40149 -3.218242 0.347734 -34.211536 0.771654 -0.963028 -17.733362 2.621018 -0.0 -0.0 0.0 -17.346413 -20.095209 -4.201781 21.757555 -1.638377 3.866426 1e-06 -6.33882 1e-06 -1.697589 -22.591736 -6.194004 -0.0 -5e-06 -3e-06 -176.346878 -59.653622 0.666581 73.623306 -1.619032 -50.055668 13.336681 -0.541629 -0.136808 40.472565 57.147167 43.058437 22.182114 -20.375898 49.933319 -16.701818 -16.74353 28.476534 -2e-06 -12.690601 -1e-06 16.03059 -17.375826 2.679804 -0.105919 -1.513857 -4.275882 -5.039041 -5.612869 -2.953556 4e-06 -11.020527 -2e-06 -6.111297 -15.895334 -3.84047 0.0 2e-06 0.0 -10.283369 -5.680288 -4.341838 11.028296 -11.302407 -2.372633 -1.384268 -14.238578 -6.320121 -0.625439 -26.924191 -3.827601 -3.917164 -50.498291 -3.944814 -13.708524 -7.363477 -3.720939 18.14115 -14.052739 -3.242675 6e-06 -18.787273 -2e-06 -0.429712 -8.456043 2.555504 -0.0 0.0 1e-06 -15.923532 -20.094484 -5.473585 30.41921 -7.190827 1.735924 2e-06 -8.162921 0.0 -1.861902 -22.861473 -6.167942 -0.0 -2e-06 -1e-06 101.648666 -6.170181 10.672414 131.499435 0.996584 0.606512 -49.696175 16.359369 5.11596 -12.047909 1.476808 1.948982 -0.999997 0.0 -0.0 -30.987022 3.46632 7.206645 85.878738 0.046535 -0.454892 -47.198597 18.526899 1.226789 -12.902104 0.548461 1.309406 -1.0 0.0 -0.0 
0.0 0.0 0.0 0.0 -0.0 0.0 -11.218867 48.118736 131.684799 91.288086 -48.17672 84.767838 14.642643 -2.440363 0.918973 -4.593109 -0.733081 2.908254 25.421839 -5.15313 0.616414 30.175234 -5.855022 1.540902 -2.649463 -0.221816 -1.277285 -22.437935 -5.680227 -1.741269 6e-06 2e-06 -0.0 -0.251168 -0.129395 0.003573 -0.101475 -0.136515 0.066399 -0.091753 -0.125541 -0.05807 -28.74202 -77.950317 37.085255 85.744476 -10.532603 -27.479486 12.899779 -1.364649 -0.167554 86.020622 68.64386 90.160492 17.636618 -26.322725 52.411175 -19.466656 -14.395594 29.410381 -1e-06 -8.774817 -1e-06 15.755158 -18.211452 6.382813 -0.609776 -1.795653 -3.889327 -4.807087 -11.046809 -2.937849 4e-06 -20.976015 -1e-06 -5.019969 -25.033556 -4.031878 6e-06 -0.0 1e-06 -10.634531 -5.686968 -3.565587 10.573271 -17.922949 -3.113901 2e-06 -13.821209 1e-06 -0.501777 -31.181498 -4.027014 -11.31126 -59.933174 7.774153 -13.982709 -7.150198 -2.87504 13.772726 -8.401491 -3.218242 0.347734 -34.211544 0.771653 -0.963028 -17.733368 2.621018 0.0 0.0 0.0 -17.346413 -20.095211 -4.201779 21.757551 -1.638374 3.866426 1e-06 -6.338822 0.0 -1.697589 -22.591743 -6.194005 0.0 -7e-06 -2e-06 -177.051422 -59.123814 0.971273 75.999054 -2.718159 -49.327293 12.90294 -0.285276 -0.08657 41.486935 58.636185 44.071136 22.182106 -20.375898 49.933323 -16.701815 -16.743528 28.47654 -3e-06 -12.690601 1e-06 16.102016 -17.435547 2.706243 -0.105919 -1.513856 -4.275882 -5.039041 -5.612872 -2.953557 4e-06 -11.020527 -2e-06 -6.111298 -15.895336 -3.84047 0.0 1e-06 0.0 -10.28337 -5.680289 -4.341839 11.028294 -11.302407 -2.372634 -1.384268 -14.238583 -6.320123 -0.625438 -26.924191 -3.827603 -4.046741 -50.564438 -3.990503 -13.708523 -7.363479 -3.720939 18.14115 -14.052742 -3.242677 6e-06 -18.787275 -3e-06 -0.429713 -8.456043 2.555504 -1e-06 0.0 -0.0 -15.923536 -20.09449 -5.473584 30.419214 -7.190825 1.735923 2e-06 -8.162926 -0.0 -1.861903 -22.861479 -6.167943 -0.0 -2e-06 -1e-06 102.00499 -5.959208 10.415741 131.634491 1.100986 0.668928 -50.126766 16.841251 5.089938 -11.604812 1.421065 1.979987 -1.0 -0.0 0.0 -28.494156 3.056845 7.699424 82.464722 -0.168071 -0.44433 -43.862827 18.734203 2.040301 -13.727532 0.595683 1.283685 -1.000002 -0.0 -0.0 
0.0 0.0 0.0 0.0 -0.0 0.0 -11.035658 47.969727 133.817825 91.948914 -48.679253 83.806343 14.237338 -2.466668 1.023694 -4.813825 -0.688551 2.7948 25.072096 -5.283265 0.537673 30.115841 -5.5935 1.322257 -2.689324 -0.103567 -1.156387 -22.49259 -6.063488 -1.402116 6e-06 -0.0 0.0 -0.24675 -0.15396 0.005867 -0.168854 -0.154652 0.054802 -0.157702 -0.155639 -0.041889 -28.520788 -78.777 36.967068 85.060036 -12.770194 -27.731842 13.170785 -1.380836 -0.108836 86.58606 68.511978 90.608772 17.636627 -26.322737 52.411205 -19.466665 -14.395597 29.410395 -2e-06 -8.774821 -1e-06 15.859297 -18.121233 6.13812 -0.609776 -1.795653 -3.889328 -4.807089 -11.046812 -2.937851 4e-06 -20.976021 -1e-06 -5.019969 -25.033562 -4.031882 6e-06 0.0 1e-06 -10.634534 -5.686971 -3.565589 10.573272 -17.922953 -3.113901 3e-06 -13.821209 1e-06 -0.501776 -31.181505 -4.027017 -11.280159 -59.84642 7.432678 -13.982712 -7.1502 -2.875042 13.772728 -8.401495 -3.218243 0.347733 -34.211555 0.771654 -0.963029 -17.73337 2.62102 -0.0 0.0 -0.0 -17.346418 -20.095221 -4.201783 21.757557 -1.638374 3.866428 1e-06 -6.338826 0.0 -1.697589 -22.591751 -6.194008 -0.0 -5e-06 -2e-06 -178.673615 -58.877945 2.419143 78.636467 -3.844705 -49.80463 12.64672 -0.240837 -0.044161 44.246307 59.469154 46.288395 22.182106 -20.375891 49.933319 -16.701815 -16.743528 28.476532 -2e-06 -12.690601 -0.0 15.835141 -17.41593 2.824916 -0.105919 -1.513856 -4.275881 -5.03904 -5.612871 -2.953557 4e-06 -11.020526 -3e-06 -6.111297 -15.895334 -3.840471 0.0 -0.0 0.0 -10.283367 -5.680289 -4.341838 11.028292 -11.302404 -2.372634 -1.384267 -14.238583 -6.320123 -0.625437 -26.924194 -3.827603 -4.176936 -50.470608 -3.677461 -13.708522 -7.363477 -3.720938 18.14115 -14.052739 -3.242676 6e-06 -18.787271 -2e-06 -0.429711 -8.456045 2.555503 -0.0 1e-06 -0.0 -15.923532 -20.094482 -5.473586 30.41921 -7.190825 1.735923 2e-06 -8.162925 -0.0 -1.861902 -22.861469 -6.167943 -0.0 -3e-06 -0.0 102.786705 -5.406593 9.873281 131.095932 1.211076 0.645831 -50.773182 16.533501 4.587359 -12.391704 1.454373 1.944375 -0.999999 0.0 -0.0 -26.428741 2.220551 7.834732 79.194168 -0.499363 -0.502694 -43.847656 18.650362 1.765383 -12.191998 0.58637 1.325084 -1.000004 -0.0 -0.0 
